<?xml version="1.0" standalone="no"?>
<!DOCTYPE svg PUBLIC "-//W3C//DTD SVG 20010904//EN"
 "http://www.w3.org/TR/2001/REC-SVG-20010904/DTD/svg10.dtd">
<svg version="1.0" xmlns="http://www.w3.org/2000/svg"
 width="200.000000pt" height="200.000000pt" viewBox="0 0 200.000000 200.000000"
 preserveAspectRatio="xMidYMid meet">
<metadata>
Created by potrace 1.10, written by Peter Selinger 2001-2011
</metadata>
<g transform="translate(0.000000,200.000000) scale(0.100000,-0.100000)"
fill="#000000" stroke="none">
<path d="M891 1953 c-6 -21 -11 -45 -11 -53 0 -9 -18 4 -40 30 l-39 45 -1 -52
c0 -29 -3 -53 -7 -53 -4 0 -25 17 -46 38 l-40 37 6 -58 c6 -62 7 -62 -49 -20
-17 13 -33 23 -37 23 -3 0 1 -24 9 -52 7 -29 14 -54 14 -56 0 -1 -22 9 -50 23
-27 14 -50 24 -50 21 0 -2 7 -23 15 -46 8 -24 14 -45 12 -47 -2 -2 -23 4 -47
12 -24 8 -45 14 -47 12 -2 -2 8 -25 23 -50 14 -26 24 -47 22 -47 -1 0 -27 7
-55 14 -29 8 -53 12 -53 9 0 -4 10 -20 23 -37 42 -56 42 -55 -20 -49 l-58 6
38 -40 c20 -21 37 -42 37 -46 0 -4 -24 -7 -52 -7 l-53 -1 44 -38 44 -39 -39
-6 c-66 -11 -69 -20 -18 -48 l45 -25 -52 -23 -53 -22 53 -20 54 -20 -47 -26
c-51 -28 -48 -37 18 -48 l40 -6 -44 -39 -45 -38 53 -1 c28 0 52 -3 52 -7 0 -4
-17 -25 -37 -46 l-38 -40 58 6 c62 6 62 7 20 -49 -13 -17 -23 -33 -23 -36 0
-3 20 -1 45 5 25 6 48 8 51 5 3 -3 -4 -24 -16 -47 -11 -23 -19 -41 -16 -41 2
0 23 7 46 15 24 8 45 14 47 12 2 -2 -4 -23 -12 -47 -8 -24 -13 -45 -11 -47 2
-2 20 6 40 18 20 12 40 19 43 15 4 -3 2 -26 -4 -51 -6 -25 -8 -45 -6 -45 2 0
24 13 48 30 l44 30 -6 -58 -6 -57 40 38 c21 20 42 37 46 37 4 0 7 -24 7 -52
l1 -53 38 44 39 44 6 -39 c11 -66 20 -69 48 -18 l26 47 20 -54 20 -53 22 53
23 52 25 -45 c28 -51 37 -48 48 18 l6 39 39 -44 38 -44 1 53 c0 28 3 52 7 52
4 0 25 -17 46 -37 l39 -38 -7 59 -8 59 47 -32 c49 -34 51 -31 37 32 -5 20 -7
37 -4 37 2 0 23 -9 45 -20 23 -11 43 -18 45 -16 2 1 -4 22 -12 46 -8 24 -14
45 -12 47 2 2 23 -4 47 -12 23 -8 44 -15 46 -15 3 0 -7 22 -21 49 l-24 49 54
-13 c30 -7 55 -10 55 -8 0 2 -11 19 -24 36 -39 54 -40 54 22 49 l57 -4 -37 39
c-37 37 -46 54 -30 52 4 -1 27 -1 52 0 l45 2 -45 39 c-26 22 -39 40 -30 40 8
0 33 5 54 11 l39 11 -48 28 -47 28 53 20 53 20 -53 22 -52 23 45 25 c51 28 48
37 -18 48 l-39 6 44 39 44 38 -52 1 c-29 0 -53 3 -53 7 0 4 17 25 38 46 l37
39 -59 -7 -59 -8 32 47 c34 49 31 51 -31 37 -21 -5 -38 -7 -38 -5 0 3 9 23 21
45 11 23 19 43 16 45 -2 2 -23 -3 -47 -11 -24 -8 -45 -14 -47 -12 -2 2 4 23
12 47 8 23 15 44 15 46 0 3 -22 -7 -49 -21 l-49 -24 13 54 c7 30 10 55 8 55
-2 0 -19 -11 -36 -24 -54 -39 -54 -40 -49 22 l4 57 -39 -37 c-21 -21 -42 -38
-46 -38 -4 0 -7 24 -7 53 l-1 52 -38 -45 -39 -44 -6 40 c-11 66 -20 69 -48 18
l-25 -46 -18 46 c-10 25 -21 46 -25 46 -4 0 -15 -21 -25 -46 l-17 -46 -25 44
c-14 23 -26 45 -28 46 -2 2 -8 -13 -14 -35z m26 -65 c-15 -9 -19 -4 -11 16 5
14 9 15 15 5 5 -8 3 -17 -4 -21z m93 17 c0 -8 -4 -15 -10 -15 -5 0 -10 7 -10
15 0 8 5 15 10 15 6 0 10 -7 10 -15z m88 -13 c2 -7 -2 -10 -12 -6 -9 3 -16 11
-16 16 0 13 23 5 28 -10z m-259 -6 c9 -10 8 -15 -4 -20 -10 -4 -15 1 -15 14 0
24 4 25 19 6z m331 -6 c0 -5 -8 -10 -17 -10 -15 0 -16 2 -3 10 19 12 20 12 20
0z m-411 -24 c9 -10 8 -15 -4 -20 -10 -4 -15 1 -15 14 0 24 4 25 19 6z m501
-6 c0 -13 -5 -18 -15 -14 -12 5 -13 10 -4 20 15 19 19 18 19 -6z m-126 -5
c243 -63 416 -286 416 -535 0 -232 -143 -437 -360 -517 -66 -25 -89 -28 -190
-28 -96 0 -126 4 -180 24 -320 117 -461 471 -309 773 64 127 210 244 350 282
72 19 201 20 273 1z m-444 -34 c0 -6 -4 -13 -10 -16 -5 -3 -10 1 -10 9 0 9 5
16 10 16 6 0 10 -4 10 -9z m640 -7 c0 -8 -4 -12 -10 -9 -5 3 -10 10 -10 16 0
5 5 9 10 9 6 0 10 -7 10 -16z m-710 -55 c0 -5 -4 -9 -10 -9 -5 0 -10 7 -10 16
0 8 5 12 10 9 6 -3 10 -10 10 -16z m776 -6 c-10 -10 -19 5 -10 18 6 11 8 11
12 0 2 -7 1 -15 -2 -18z m-836 -54 c0 -5 -4 -9 -10 -9 -5 0 -10 7 -10 16 0 8
5 12 10 9 6 -3 10 -10 10 -16z m896 -6 c-10 -10 -19 5 -10 18 6 11 8 11 12 0
2 -7 1 -15 -2 -18z m-942 -58 c-4 -8 -10 -12 -15 -9 -14 8 -10 24 6 24 9 0 12
-6 9 -15z m996 -1 c0 -9 -5 -14 -12 -12 -18 6 -21 28 -4 28 9 0 16 -7 16 -16z
m-1038 -76 c-6 -6 -15 -8 -19 -4 -4 4 -1 11 7 16 19 12 27 3 12 -12z m1078 0
c0 -13 -23 -5 -28 10 -2 7 2 10 12 6 9 -3 16 -11 16 -16z m30 -79 c0 -5 -4 -9
-10 -9 -5 0 -10 7 -10 16 0 8 5 12 10 9 6 -3 10 -10 10 -16z m-1140 1 c0 -5
-4 -10 -10 -10 -5 0 -10 5 -10 10 0 6 5 10 10 10 6 0 10 -4 10 -10z m1160 -80
c0 -5 -4 -12 -10 -15 -5 -3 -10 -4 -10 -1 0 2 -3 12 -6 20 -5 12 -2 15 10 10
9 -3 16 -10 16 -14z m-1180 -6 c0 -8 -4 -12 -10 -9 -5 3 -10 10 -10 16 0 5 5
9 10 9 6 0 10 -7 10 -16z m0 -74 c0 -13 -5 -18 -15 -14 -12 5 -13 10 -4 20 15
19 19 18 19 -6z m1172 -12 c-9 -9 -12 -7 -12 12 0 19 3 21 12 12 9 -9 9 -15 0
-24z m-1172 -74 c0 -8 -5 -12 -10 -9 -6 4 -8 11 -5 16 9 14 15 11 15 -7z
m1175 7 c3 -5 1 -12 -5 -16 -5 -3 -10 1 -10 9 0 18 6 21 15 7z m-1155 -87 c0
-8 -5 -12 -10 -9 -6 4 -8 11 -5 16 9 14 15 11 15 -7z m1135 7 c3 -5 1 -12 -5
-16 -5 -3 -10 1 -10 9 0 18 6 21 15 7z m-1101 -100 c-9 -10 -26 18 -18 30 5 9
9 8 14 -7 4 -10 6 -21 4 -23z m1076 8 c0 -5 -7 -9 -15 -9 -15 0 -20 12 -9 23
8 8 24 -1 24 -14z m-1040 -64 c0 -8 -7 -15 -15 -15 -9 0 -12 6 -9 15 4 8 10
15 15 15 5 0 9 -7 9 -15z m1000 -6 c0 -5 -7 -9 -15 -9 -9 0 -12 6 -9 15 6 15
24 11 24 -6z m-942 -67 c2 -7 -3 -12 -12 -12 -9 0 -16 7 -16 16 0 17 22 14 28
-4z m889 -8 c-9 -9 -28 6 -21 18 4 6 10 6 17 -1 6 -6 8 -13 4 -17z m-833 -55
c-8 -14 -24 -10 -24 6 0 9 6 12 15 9 8 -4 12 -10 9 -15z m776 1 c0 -5 -4 -10
-9 -10 -6 0 -13 5 -16 10 -3 6 1 10 9 10 9 0 16 -4 16 -10z m-710 -51 c0 -5
-4 -9 -10 -9 -5 0 -10 7 -10 16 0 8 5 12 10 9 6 -3 10 -10 10 -16z m636 -6
c-10 -10 -19 5 -10 18 6 11 8 11 12 0 2 -7 1 -15 -2 -18z m-556 -32 c0 -5 -7
-11 -15 -15 -9 -3 -15 0 -15 9 0 8 7 15 15 15 8 0 15 -4 15 -9z m480 -1 c0 -5
-4 -10 -10 -10 -5 0 -10 5 -10 10 0 6 5 10 10 10 6 0 10 -4 10 -10z m-400 -24
c0 -2 -7 -9 -15 -16 -12 -10 -15 -10 -15 4 0 9 7 16 15 16 8 0 15 -2 15 -4z
m321 -9 c-1 -12 -15 -9 -19 4 -3 6 1 10 8 8 6 -3 11 -8 11 -12z m-243 -18 c-2
-6 -8 -10 -13 -10 -5 0 -11 4 -13 10 -2 6 4 11 13 11 9 0 15 -5 13 -11z m166
-4 c-4 -8 -10 -12 -15 -9 -14 8 -10 24 6 24 9 0 12 -6 9 -15z m-84 -5 c0 -5
-4 -10 -10 -10 -5 0 -10 5 -10 10 0 6 5 10 10 10 6 0 10 -4 10 -10z"/>
<path d="M913 1830 c-291 -52 -488 -336 -429 -620 44 -212 202 -371 411 -415
39 -8 86 -15 105 -15 19 0 67 7 105 15 207 44 366 203 410 410 18 88 18 122 0
210 -50 235 -240 401 -481 419 -38 2 -92 1 -121 -4z m251 -40 c164 -56 300
-210 335 -378 56 -270 -125 -545 -397 -601 -277 -57 -554 132 -603 413 -29
168 27 334 154 453 76 72 163 117 267 137 51 10 186 -3 244 -24z"/>
<path d="M891 1649 c-92 -38 -96 -39 -160 -28 -119 19 -143 -25 -71 -131 38
-56 40 -63 40 -134 l0 -75 78 -86 c73 -82 77 -90 82 -142 5 -55 6 -57 71 -108
l65 -53 66 49 c66 49 66 50 73 108 6 56 11 63 86 147 l79 89 0 73 c0 69 2 77
40 132 72 106 47 152 -72 131 -63 -11 -66 -10 -167 29 -56 22 -105 40 -109 39
-4 0 -49 -18 -101 -40z m222 -19 c109 -38 154 -78 168 -150 5 -30 7 -86 4
-125 l-7 -70 -79 -81 c-78 -78 -80 -82 -86 -138 -6 -56 -8 -59 -57 -92 -28
-19 -54 -34 -58 -34 -5 0 -30 15 -57 32 -47 31 -50 36 -56 87 -6 51 -13 61
-88 144 l-82 90 0 113 1 114 39 39 c28 30 58 47 113 65 76 26 92 26 92 0 0
-17 16 -19 26 -2 4 6 -1 17 -10 24 -16 12 -16 13 1 17 22 5 35 2 136 -33z
m-384 -46 c2 -2 -3 -12 -11 -21 -8 -10 -18 -27 -22 -38 -7 -19 -8 -19 -27 4
-19 23 -25 52 -13 64 6 6 64 -2 73 -9z m618 0 c6 -17 -24 -84 -39 -84 -4 0 -8
7 -8 16 0 9 -9 29 -20 44 l-20 29 32 4 c18 2 37 5 41 5 4 1 10 -5 14 -14z"/>
<path d="M1012 1643 c-10 -4 -10 -8 -1 -19 16 -19 24 -18 26 6 2 20 -2 22 -25
13z"/>
<path d="M896 1611 c-18 -7 -18 -8 -3 -14 20 -7 47 1 47 14 0 11 -17 11 -44 0z"/>
<path d="M1060 1611 c0 -13 27 -21 47 -14 15 6 15 7 -3 14 -27 11 -44 11 -44
0z"/>
<path d="M800 1575 c-18 -21 -3 -32 16 -13 10 9 12 18 6 22 -5 3 -15 -1 -22
-9z"/>
<path d="M870 1580 c-8 -5 -11 -12 -7 -16 4 -4 13 -2 19 4 6 6 10 14 7 16 -2
3 -11 1 -19 -4z"/>
<path d="M928 1583 c-10 -2 -18 -9 -18 -14 0 -15 43 -7 48 9 4 12 0 13 -30 5z"/>
<path d="M972 1578 c-16 -16 -15 -28 3 -28 8 0 15 9 15 20 0 23 -2 24 -18 8z"/>
<path d="M1007 1583 c-8 -12 9 -36 21 -32 7 3 6 10 -3 22 -7 10 -15 14 -18 10z"/>
<path d="M1042 1578 c3 -7 15 -14 29 -16 23 -2 23 -2 5 13 -24 18 -39 20 -34
3z"/>
<path d="M1112 1578 c5 -15 28 -23 28 -10 0 5 -7 13 -16 16 -10 4 -14 1 -12
-6z"/>
<path d="M1176 1581 c-3 -5 1 -14 9 -21 12 -10 15 -10 15 3 0 19 -16 31 -24
18z"/>
<path d="M821 1544 c-17 -13 -20 -19 -10 -30 13 -16 33 -19 24 -4 -4 6 -1 18
6 26 17 21 6 26 -20 8z"/>
<path d="M1150 1551 c0 -5 4 -12 10 -16 5 -3 7 -12 3 -20 -6 -18 11 -20 25 -2
7 9 3 17 -14 30 -13 10 -24 13 -24 8z"/>
<path d="M871 1531 c-14 -25 -1 -35 15 -13 16 20 17 32 4 32 -5 0 -14 -8 -19
-19z"/>
<path d="M1106 1525 c9 -14 20 -22 25 -19 12 7 -12 44 -29 44 -9 0 -8 -6 4
-25z"/>
<path d="M916 1533 c-6 -6 24 -32 37 -33 5 0 7 7 5 17 -3 16 -31 26 -42 16z"/>
<path d="M1037 1518 c-3 -10 -2 -18 1 -18 10 1 58 29 52 30 -32 8 -49 4 -53
-12z"/>
<path d="M754 1505 c-3 -14 -4 -28 -1 -31 10 -10 27 7 27 26 0 30 -19 33 -26
5z"/>
<path d="M1227 1524 c-11 -11 -8 -42 4 -49 16 -10 19 -2 11 29 -4 15 -11 24
-15 20z"/>
<path d="M974 1495 c3 -9 -1 -18 -9 -21 -8 -4 -15 -10 -15 -15 0 -5 9 -4 20 3
21 14 28 48 9 48 -6 0 -8 -7 -5 -15z"/>
<path d="M1011 1493 c-1 -13 8 -27 19 -33 14 -7 20 -7 20 0 0 5 -5 10 -10 10
-6 0 -15 10 -20 23 l-9 22 0 -22z"/>
<path d="M794 1458 c-5 -7 -2 -9 9 -5 8 3 21 0 27 -8 6 -7 19 -11 30 -8 53 14
95 -24 64 -58 -16 -17 -15 -21 12 -54 16 -20 36 -49 45 -65 l16 -29 12 22 c6
12 27 42 46 66 33 40 34 45 20 61 -8 9 -15 22 -15 28 0 18 39 34 71 30 18 -3
30 1 34 10 3 8 12 11 21 8 8 -3 12 -2 9 4 -13 20 -82 11 -113 -15 -17 -14 -35
-25 -40 -25 -6 0 -14 -4 -17 -10 -3 -6 1 -7 10 -4 11 4 14 2 10 -9 -4 -8 1
-17 9 -20 9 -4 16 -11 16 -17 0 -7 -26 -10 -70 -9 -38 1 -70 3 -70 4 0 17 29
51 40 47 8 -3 -9 12 -39 32 -55 37 -122 49 -137 24z m218 -150 c-9 -9 -15 -9
-24 0 -9 9 -7 12 12 12 19 0 21 -3 12 -12z"/>
<path d="M737 1443 c-4 -3 -7 -11 -7 -17 0 -6 5 -5 12 2 6 6 9 14 7 17 -3 3
-9 2 -12 -2z"/>
<path d="M1240 1442 c0 -5 7 -13 16 -16 10 -4 14 -1 12 6 -5 15 -28 23 -28 10z"/>
<path d="M764 1419 c-6 -10 12 -29 29 -29 9 0 9 4 1 24 -7 19 -20 21 -30 5z"/>
<path d="M1204 1415 c-4 -9 -4 -18 -2 -21 9 -8 39 8 35 19 -6 18 -27 20 -33 2z"/>
<path d="M720 1380 c0 -19 3 -21 12 -12 9 9 9 15 0 24 -9 9 -12 7 -12 -12z"/>
<path d="M1266 1391 c-4 -7 -5 -15 -2 -18 9 -9 19 4 14 18 -4 11 -6 11 -12 0z"/>
<path d="M762 1360 c9 -13 16 -16 23 -9 7 7 5 13 -5 19 -24 15 -31 11 -18 -10z"/>
<path d="M1213 1365 c-9 -25 2 -27 22 -5 17 18 17 20 1 20 -9 0 -19 -7 -23
-15z"/>
<path d="M850 1340 c46 -25 64 -25 22 0 -18 11 -38 20 -45 20 -6 -1 4 -9 23
-20z"/>
<path d="M1125 1339 c-16 -10 -26 -19 -22 -19 11 0 67 29 67 35 0 9 -15 4 -45
-16z"/>
<path d="M730 1326 c0 -13 8 -31 18 -38 10 -7 21 -21 25 -30 7 -18 27 -25 27
-9 0 4 -8 19 -19 32 -10 13 -20 33 -22 43 -6 30 -29 32 -29 2z"/>
<path d="M1247 1343 c-4 -3 -7 -13 -7 -20 0 -8 -10 -27 -22 -43 -12 -16 -19
-33 -15 -36 10 -10 27 6 27 27 0 10 5 18 12 17 6 -2 14 12 18 30 7 30 2 40
-13 25z"/>
<path d="M825 1321 c21 -21 91 -48 80 -30 -4 5 -15 9 -25 9 -10 0 -22 4 -25
10 -3 5 -16 15 -28 21 l-22 11 20 -21z"/>
<path d="M1151 1319 c-13 -10 -29 -19 -37 -19 -7 0 -15 -4 -18 -9 -3 -4 5 -6
17 -4 25 5 74 39 67 46 -3 3 -16 -3 -29 -14z"/>
<path d="M814 1291 c8 -12 71 -41 88 -41 7 0 -9 12 -37 25 -56 28 -58 29 -51
16z"/>
<path d="M1164 1290 c-5 -5 -27 -16 -49 -25 -31 -12 -33 -14 -10 -9 30 6 99
44 80 44 -6 0 -15 -4 -21 -10z"/>
<path d="M925 1208 c-33 -6 -62 -12 -64 -14 -2 -2 7 -20 20 -41 13 -21 26 -58
29 -83 l5 -45 81 -3 82 -3 7 48 c3 26 17 67 30 89 l24 42 -51 6 c-28 4 -63 9
-77 11 -14 2 -53 -2 -86 -7z m141 -32 c-3 -11 -6 -25 -7 -31 0 -5 -4 -1 -8 10
-6 15 -18 19 -54 20 -40 0 -47 -3 -47 -20 0 -17 -2 -17 -10 -5 -5 8 -10 23
-10 33 0 15 9 17 71 16 67 -1 70 -3 65 -23z m-31 -46 c8 -13 -30 -22 -61 -14
l-27 7 23 12 c23 12 56 10 65 -5z m-33 -46 c35 -2 51 2 55 12 10 26 21 15 14
-13 -7 -27 -11 -28 -74 -31 -54 -2 -67 0 -67 12 0 8 -3 23 -7 33 -6 16 -5 17
11 3 10 -8 41 -15 68 -16z"/>
<path d="M717 545 c-33 -38 -41 -43 -58 -34 -19 10 -19 10 1 40 l21 29 -21 0
c-31 0 -60 -18 -60 -37 0 -14 4 -13 23 5 31 29 46 28 20 0 -29 -32 -133 -208
-123 -208 14 0 54 53 74 98 10 23 22 39 26 37 4 -3 10 4 13 15 3 13 10 18 21
14 13 -5 11 -13 -14 -49 -17 -24 -30 -52 -30 -62 0 -10 14 5 32 36 26 44 33
50 40 36 6 -9 7 -31 4 -49 -4 -21 -2 -37 6 -44 10 -8 13 -1 14 31 1 23 15 75
32 115 16 39 27 72 24 72 -4 -1 -24 -21 -45 -45z m-5 -46 c-13 -33 -17 -37
-25 -24 -6 12 -3 23 14 41 12 13 24 24 25 24 1 0 -5 -18 -14 -41z"/>
<path d="M1041 544 c-35 -37 -45 -43 -57 -33 -13 10 -12 15 1 35 9 13 11 24 6
24 -6 0 -35 -34 -66 -75 -49 -65 -75 -89 -75 -70 0 10 42 89 62 118 27 39 4
34 -26 -6 -27 -35 -65 -114 -66 -134 0 -24 28 -13 61 25 18 20 29 28 25 17
-15 -35 -18 -72 -7 -79 7 -5 11 3 11 21 1 27 38 109 40 88 1 -5 6 1 11 14 7
17 13 21 20 14 7 -7 1 -25 -20 -59 -17 -26 -31 -52 -31 -57 0 -17 21 6 41 46
12 23 25 44 28 47 4 3 17 19 30 35 13 17 21 22 18 12 -4 -11 -10 -30 -13 -43
-3 -13 -9 -22 -13 -20 -4 3 -8 -18 -9 -45 -1 -27 2 -49 6 -49 16 0 50 45 83
110 44 86 45 87 25 71 -9 -8 -35 -46 -56 -85 -44 -79 -48 -78 -23 6 12 40 22
57 31 53 7 -2 10 -1 7 5 -9 15 38 40 63 33 30 -7 26 -44 -6 -58 -20 -9 -23
-16 -20 -65 l3 -55 55 4 c51 3 69 12 70 35 0 5 -8 2 -18 -7 -10 -10 -28 -17
-40 -17 l-22 0 22 45 c17 35 28 45 47 46 24 2 24 2 3 6 l-22 4 21 30 c11 16
30 29 41 29 17 0 19 -2 7 -16 -10 -13 -10 -17 0 -24 10 -6 9 -14 -5 -36 -10
-16 -22 -31 -25 -34 -11 -8 2 -58 16 -63 6 -3 22 0 35 6 26 14 67 64 58 72 -3
3 -15 -10 -26 -30 -22 -36 -48 -46 -58 -21 -8 20 32 93 61 112 14 9 23 19 21
22 -3 2 -17 -3 -32 -12 -29 -19 -38 -17 -28 7 4 13 19 16 68 14 l62 -2 -15
-27 c-9 -16 -22 -28 -29 -28 -7 0 -10 -5 -7 -10 4 -6 -5 -30 -18 -54 l-25 -44
27 -4 c49 -6 71 3 87 35 l16 32 -29 -27 c-26 -25 -63 -38 -63 -23 0 3 9 24 20
45 14 28 27 40 43 41 17 1 18 2 5 6 -22 6 -22 12 -2 41 18 27 54 30 54 5 1
-17 1 -17 11 0 6 10 8 21 6 24 -5 4 -127 6 -274 3 -15 0 -21 -5 -17 -15 3 -8
-5 -25 -19 -39 -14 -14 -23 -27 -21 -29 3 -2 -6 -23 -20 -47 l-24 -42 -4 44
c-2 24 0 45 6 47 5 2 21 15 35 29 l25 25 -23 18 c-26 21 -53 24 -81 9 -16 -8
-18 -8 -14 5 10 25 -1 17 -45 -31z"/>
<path d="M801 559 c-35 -21 -81 -105 -81 -149 0 -37 6 -37 43 -2 l29 27 -7
-27 c-5 -18 -3 -28 4 -28 6 0 11 7 11 17 0 9 11 36 25 60 25 42 26 43 5 43
-12 0 -18 -4 -15 -10 7 -11 -60 -88 -69 -79 -11 11 25 95 54 127 36 40 52 41
44 5 l-6 -28 21 25 c11 14 21 28 21 31 0 13 -50 6 -79 -12z"/>
<path d="M885 314 c-31 -28 -45 -33 -67 -29 -25 6 -28 4 -27 -17 1 -17 3 -18
6 -5 2 9 8 17 12 17 20 0 17 -15 -12 -56 -17 -24 -32 -42 -35 -40 -2 3 1 30 8
60 11 54 37 85 60 71 5 -3 11 -1 14 4 13 21 -13 20 -44 -2 -20 -13 -39 -38
-47 -62 -14 -41 -10 -85 7 -85 12 0 39 27 61 60 21 31 33 20 34 -27 0 -52 18
-51 55 1 17 26 35 46 40 46 6 0 10 -18 10 -39 0 -22 5 -43 10 -46 6 -4 10 6
10 22 0 15 14 57 30 91 17 35 30 66 30 69 0 3 -21 -13 -48 -35 -42 -35 -50
-38 -66 -27 -14 11 -16 17 -6 35 18 33 9 31 -35 -6z m-4 -38 c-10 -21 -20 -31
-25 -25 -6 5 -1 18 14 34 13 14 24 25 25 25 2 0 -5 -15 -14 -34z m106 -6 c-7
-19 -15 -26 -21 -20 -6 6 -3 17 9 30 24 27 25 25 12 -10z m-55 0 c0 -3 -14
-27 -32 -55 -32 -49 -32 -50 -26 -16 7 41 33 84 47 79 6 -2 11 -6 11 -8z"/>
<path d="M1290 310 c-33 -28 -48 -36 -57 -28 -7 6 -20 8 -28 4 -17 -6 -21 -36
-5 -36 6 0 10 7 10 15 0 16 16 20 24 6 3 -5 -1 -15 -10 -22 -18 -15 -48 -69
-41 -75 2 -2 16 14 31 36 14 22 31 40 36 40 6 0 10 -18 10 -39 0 -22 5 -43 10
-46 6 -4 10 6 10 22 0 15 14 57 30 92 17 35 29 65 28 67 -2 1 -23 -15 -48 -36z
m-3 -40 c-7 -19 -15 -26 -21 -20 -6 6 -3 17 9 30 24 27 25 25 12 -10z"/>
<path d="M732 303 c-40 -52 -84 -124 -79 -129 6 -7 91 96 93 113 2 8 10 23 20
34 9 10 12 19 6 19 -6 0 -24 -17 -40 -37z"/>
<path d="M1123 328 c-26 -12 -28 -30 -12 -77 13 -38 -2 -64 -35 -59 -16 2 -20
9 -18 28 l3 25 -20 -25 c-11 -13 -17 -28 -15 -32 10 -16 81 -8 97 10 20 22 21
35 5 79 -10 29 -10 36 2 43 23 15 30 12 30 -12 1 -22 1 -23 15 -4 12 16 12 22
2 28 -16 10 -27 9 -54 -4z"/>
<path d="M1145 199 c-10 -15 3 -25 16 -12 7 7 7 13 1 17 -6 3 -14 1 -17 -5z"/>
<path d="M1295 199 c-10 -15 3 -25 16 -12 7 7 7 13 1 17 -6 3 -14 1 -17 -5z"/>
</g>
</svg>
